<svg id="visual" viewBox="0 0 900 600" width="900" height="600" xmlns="http://www.w3.org/2000/svg" xmlns:xlink="http://www.w3.org/1999/xlink" version="1.1"><rect x="0" y="0" width="900" height="600" fill="#212529"></rect><defs><linearGradient id="grad1_0" x1="33.3%" y1="100%" x2="100%" y2="0%"><stop offset="20%" stop-color="#212529" stop-opacity="1"></stop><stop offset="80%" stop-color="#212529" stop-opacity="1"></stop></linearGradient></defs><defs><linearGradient id="grad2_0" x1="0%" y1="100%" x2="66.7%" y2="0%"><stop offset="20%" stop-color="#212529" stop-opacity="1"></stop><stop offset="80%" stop-color="#212529" stop-opacity="1"></stop></linearGradient></defs><g transform="translate(900, 600)"><path d="M-297.5 0C-266.4 -10.2 -235.4 -20.4 -228.6 -32.9C-221.9 -45.4 -239.3 -60.2 -238.9 -70.2C-238.5 -80.1 -220.3 -85 -223.8 -102.2C-227.3 -119.3 -252.5 -148.7 -250.2 -160.8C-248 -173 -218.3 -168 -207.8 -180.1C-197.4 -192.2 -206.3 -221.3 -190.6 -219.9C-174.8 -218.5 -134.5 -186.7 -116.8 -181.7C-99.1 -176.8 -104.1 -198.8 -103 -225.6C-102 -252.4 -95 -284 -80.9 -275.4C-66.7 -266.7 -45.5 -217.8 -30.9 -214.8C-16.2 -211.8 -8.1 -254.6 0 -297.5L0 0Z" fill="#0dcaf0"></path></g><g transform="translate(0, 0)"><path d="M297.5 0C284.6 13 271.8 25.9 263.3 37.9C254.8 49.8 250.7 60.7 248.5 73C246.3 85.3 245.9 98.9 237.4 108.4C228.9 117.9 212.2 123.2 199.4 128.1C186.5 133.1 177.5 137.8 176.1 152.6C174.7 167.4 181 192.2 174.2 201C167.4 209.9 147.5 202.7 138.9 216.2C130.4 229.7 133.1 264 122.5 268.3C111.9 272.7 88 247.2 73.3 249.5C58.5 251.7 53 281.8 42.3 294.4C31.7 307.1 15.8 302.3 0 297.5L0 0Z" fill="#0dcaf0"></path></g></svg>